<?xml version="1.0" standalone="no"?><!DOCTYPE svg PUBLIC "-//W3C//DTD SVG 1.1//EN" "http://www.w3.org/Graphics/SVG/1.1/DTD/svg11.dtd"><svg t="1678634747638" class="icon" viewBox="0 0 1024 1024" version="1.1" xmlns="http://www.w3.org/2000/svg" p-id="6380" width="16" height="16" xmlns:xlink="http://www.w3.org/1999/xlink"><path d="M512 64a448 448 0 1 0 448 448A448 448 0 0 0 512 64z m0 832a384 384 0 1 1 384-384 384 384 0 0 1-384 384z" fill="#666666" p-id="6381"></path><path d="M511.52 512m-128 0a128 128 0 1 0 256 0 128 128 0 1 0-256 0Z" fill="#666666" p-id="6382"></path><path d="M480 111.52h64v144h-64zM912.48 481.12v64h-144v-64zM256.48 481.12v64h-144v-64zM479.68 767.2h64v144h-64z" fill="#666666" p-id="6383"></path></svg>